<svg width="25" height="26" viewBox="0 0 25 26" fill="none" xmlns="http://www.w3.org/2000/svg">
<path d="M12.4031 0C15.6481 0 18.3282 0.854868 20.4436 2.56472C22.5828 4.27458 23.965 6.58644 24.5899 9.50044H18.0638C17.5831 8.32043 16.838 7.39328 15.8284 6.71899C14.8429 6.04459 13.6651 5.70744 12.2949 5.70744C10.4921 5.70744 9.03791 6.36972 7.93226 7.69429C6.82649 9.01873 6.27366 10.7889 6.27366 13.0044C6.27366 15.22 6.82649 16.99 7.93226 18.3146C9.03791 19.615 10.4921 20.2652 12.2949 20.2652C13.6651 20.2652 14.8429 19.928 15.8284 19.2537C16.838 18.5794 17.5831 17.6643 18.0638 16.5083H24.5899C23.965 19.3982 22.5828 21.7102 20.4436 23.444C18.3282 25.1539 15.6481 26.0087 12.4031 26.0087C9.9273 26.0087 7.7519 25.4669 5.87706 24.3833C4.00221 23.2755 2.54787 21.7342 1.51427 19.7595C0.504794 17.7847 0 15.533 0 13.0044C0 10.4757 0.504794 8.22402 1.51427 6.2493C2.54787 4.27458 4.00221 2.74542 5.87706 1.66171C7.7519 0.553861 9.9273 0 12.4031 0Z" fill="#33854E"/>
</svg>
